# xmcd
#
# Track frame offsets:
# 150
# 10127
# 18430
# 24907
# 35070
# 41164
# 48072
# 62517
# 70745
# 88920
# 98127
# 111607
# 118307
# 127617
# 138737
# 151625
# 171412
# 184782
# 204880
# 220070
#
# Disc length: 3114 seconds
#
#
# Revision: 0
# Processed by: cddbd v1.5.2PL0 Copyright (c) Steve Scherf et al.
# Submitted via: FreeRIP 2.944 
#
DISCID=100c2814
DTITLE=Companhia Carroça de Mamulengos - Alumiação
DYEAR=1900
DGENRE=
TTITLE0=Casa santa
TTITLE1=Reisado
TTITLE2=Burrinha
TTITLE3=Carneirinho
TTITLE4=Tamanduá
TTITLE5=Veado
TTITLE6=Jaraguá
TTITLE7=Boi
TTITLE8=Miota
TTITLE9=Menina Lua
TTITLE10=Papai Curumiaçu, Mamãe Curumiari
TTITLE11=Quatro Elementos
TTITLE12=Canção de Ninar
TTITLE13=Tabuada
TTITLE14=Terreiro da Vovó
TTITLE15=Vovó Chiquinha
TTITLE16=Pica-pau
TTITLE17=Brincadeiras de Mateus
TTITLE18=Lavadeira
TTITLE19=Canções de Palhaço
EXTD=
EXTT0=
EXTT1=
EXTT2=
EXTT3=
EXTT4=
EXTT5=
EXTT6=
EXTT7=
EXTT8=
EXTT9=
EXTT10=
EXTT11=
EXTT12=
EXTT13=
EXTT14=
EXTT15=
EXTT16=
EXTT17=
EXTT18=
EXTT19=
PLAYORDER=
